# xmcd CD database file generated by LOLA_Freedb v0.9beta0
# 
# Track frame offsets:
#      150
#      12318
#      23399
#      36140
#      47791
#      60185
#      75002
#      91302
#      104273
#      113327
#      124550
#      134979
#      146374
#      157784
#      169399
#      179886
#      193566
#      207579
#      219024
#      234298
# 
# Disc length: 3289 seconds
# 
# Revision: 2 
# Processed by: cddbd v1.5.1PL2 Copyright (c) Steve Scherf et al.
# Submitted via: LOLA_Freedb v0.9beta0
# 
DISCID=f90cd714
DTITLE=B.B. King - The Early "Blues Boy" Years
DYEAR=1900
DGENRE=
TTITLE0=B.B. King - Miss Martha King
TTITLE1=B.B. King - When You Baby Packs Up and Goes
TTITLE2=B.B. King - Got the Blues
TTITLE3=B.B. King - Take A Swing With Me
TTITLE4=B.B. King - Mistreated Woman
TTITLE5=B.B. King - B.B. Boogie
TTITLE6=B.B. King - The Other Night Blues
TTITLE7=B.B. King - Walkin' and Cryin'
TTITLE8=B.B. King - My Baby is Gone
TTITLE9=B.B. King - B.B. Blues
TTITLE10=B.B. King - Fine Looking Woman
TTITLE11=B.B. King - She's Dynamite
TTITLE12=B.B. King - She's A Mean Woman
TTITLE13=B.B. King - Hard Working Woman
TTITLE14=B.B. King - That Ain't the Way to Do It
TTITLE15=B.B. King - Three O'Clock Blues
TTITLE16=B.B. King - She Don't Move Me No More
TTITLE17=Shake it Up and Go
TTITLE18=My Own Fault Darlin'
TTITLE19=I Gotta Find my Baby
EXTD=
EXTT0=
EXTT1=
EXTT2=
EXTT3=
EXTT4=
EXTT5=
EXTT6=
EXTT7=
EXTT8=
EXTT9=
EXTT10=
EXTT11=
EXTT12=
EXTT13=
EXTT14=
EXTT15=
EXTT16=
EXTT17=
EXTT18=
EXTT19=
PLAYORDER=
